<svg version="1.1" xmlns="http://www.w3.org/2000/svg" xmlns:xlink="http://www.w3.org/1999/xlink" width="286.67763" height="100.15932" viewBox="0,0,286.67763,100.15932"><g transform="translate(-11.16118,-251.40061)"><g stroke="none" stroke-miterlimit="10"><path d="M40.13118,351.55993c-15.99969,0 -28.97,-12.31217 -28.97,-27.5v-45.15932c0,-15.18783 12.97031,-27.5 28.97,-27.5h228.73763c15.99969,0 28.97,12.31217 28.97,27.5v45.15932c0,15.18783 -12.97031,27.5 -28.97,27.5z" fill="#ffffff" stroke-width="0"/><g><path d="M27.38239,301.48027c0,-11.09047 8.99061,-20.08108 20.08108,-20.08108c11.09047,0 20.08109,8.99061 20.08109,20.08108c0,11.09047 -8.99061,20.08108 -20.08109,20.08108c-11.09047,0 -20.08108,-8.99061 -20.08108,-20.08108z" fill="#848487" stroke-width="0"/><g fill="#ffffff" stroke-width="1"><path d="M54.87189,289.33243l0.09627,0.15128v11.67632v11.67632l-0.12378,0.25673c-0.15587,0.33466 -0.45385,0.63264 -0.78392,0.78392c-0.21547,0.10086 -0.32549,0.11919 -0.62805,0.11919c-0.47218,0 -0.83893,-0.15587 -1.15067,-0.48594c-0.28881,-0.30715 -0.39884,-0.57304 -0.41717,-1.02231c-0.01375,-0.20171 0.07336,-1.85207 0.18795,-3.67206c0.1467,-2.40678 0.19253,-3.35574 0.16046,-3.49785c-0.09169,-0.41717 -0.16962,-0.50886 -0.92605,-1.15067c-0.51345,-0.43093 -0.9077,-1.04981 -1.0819,-1.70078c-0.13752,-0.50886 -0.20171,-1.32029 -0.20171,-2.49388c0,-2.14547 0.38508,-4.5064 1.10025,-6.69314c0.71974,-2.21424 1.83373,-3.91044 2.79645,-4.26803c0.3484,-0.12837 0.78392,0.01375 0.97188,0.3209z"/><path d="M41.39864,289.53983c0.0871,0.14211 0.09169,0.24756 0.09169,2.73686c0,2.42511 0.00917,2.60391 0.0871,2.77811c0.22923,0.50886 0.92605,0.57763 1.26986,0.12837l0.13295,-0.16962l0.02292,-2.61766c0.02292,-2.3701 0.03209,-2.63142 0.10086,-2.76435c0.27048,-0.49053 1.03148,-0.50429 1.32487,-0.0275l0.11003,0.1742l0.02292,2.62224c0.02292,2.55806 0.0275,2.62224 0.11919,2.74602c0.15128,0.20629 0.3209,0.30715 0.5593,0.33007c0.37134,0.03209 0.69224,-0.19712 0.78392,-0.56846c0.03209,-0.12837 0.05042,-1.05898 0.05042,-2.70017c0,-2.76435 -0.00917,-2.68643 0.28881,-2.86521c0.30715,-0.18795 0.75183,-0.0596 0.88018,0.24756c0.0871,0.20629 0.35758,5.51038 0.33007,6.39975c-0.02292,0.71515 -0.0871,0.99939 -0.37134,1.58159c-0.23381,0.48594 -0.54095,0.88477 -1.04064,1.34322c-0.80227,0.74266 -1.24695,1.65036 -1.30653,2.66808c-0.02292,0.33466 0.00917,0.77018 0.13752,1.87959c0.40343,3.56662 0.76559,8.30225 0.66932,8.80194c-0.15128,0.79768 -0.77475,1.41656 -1.577,1.56326c-1.00855,0.18795 -2.01711,-0.53179 -2.19133,-1.57243c-0.04125,-0.22005 -0.03209,-0.57763 0.0275,-1.52658c0.1467,-2.32426 0.45385,-5.74876 0.71515,-7.97675c0.11003,-0.91687 0.10086,-1.27902 -0.05042,-1.87959c-0.18795,-0.74724 -0.64181,-1.4624 -1.30653,-2.05837c-0.74724,-0.67849 -1.17359,-1.48074 -1.30194,-2.46637c-0.04125,-0.31173 -0.01833,-0.95812 0.11003,-3.50244c0.16962,-3.41075 0.16046,-3.32365 0.45385,-3.50244c0.28881,-0.17879 0.68765,-0.0871 0.85728,0.19712z"/></g></g><text transform="translate(109.63001,309.76875) scale(0.5,0.5)" font-size="40" xml:space="preserve" fill="#858588" stroke-width="1" font-family="Sans Serif" font-weight="normal" text-anchor="start"><tspan x="0" dy="0">Nutrición</tspan></text></g></g></svg>