<svg version="1.1" xmlns="http://www.w3.org/2000/svg" xmlns:xlink="http://www.w3.org/1999/xlink" width="286.67763" height="100.15932" viewBox="0,0,286.67763,100.15932"><g transform="translate(-11.16119,-253.92034)"><g stroke="none" stroke-miterlimit="10"><path d="M40.13119,354.07966c-15.99969,0 -28.97,-12.31217 -28.97,-27.5v-45.15932c0,-15.18783 12.97031,-27.5 28.97,-27.5h228.73763c15.99969,0 28.97,12.31217 28.97,27.5v45.15932c0,15.18783 -12.97031,27.5 -28.97,27.5z" fill="#ffffff" stroke-width="0"/><path d="M27.37447,304c0,-11.30726 9.16635,-20.47361 20.47361,-20.47361c11.30726,0 20.47362,9.16635 20.47362,20.47361c0,11.30726 -9.16635,20.47361 -20.47362,20.47361c-11.30726,0 -20.47361,-9.16635 -20.47361,-20.47361z" fill="#848487" stroke-width="0"/><path d="M38.16919,298.91003c0.36664,0.15247 0.56331,0.46869 0.71356,0.82334c0.70113,2.80458 0.05488,5.78158 0.05488,8.67247c5.76005,0 11.52012,0 17.45472,0c0,-1.72077 0,-3.44153 0,-5.21446c0.23678,-0.47354 0.36677,-0.70155 0.78903,-0.95714c0.29525,-0.06327 0.58047,-0.02112 0.84735,0.12007c0.34378,0.24267 0.51319,0.5428 0.61407,0.94684c0.04181,0.38801 0.02777,0.78122 0.02492,1.17082c-0.00006,0.11905 -0.00003,0.23809 0.0001,0.35714c0.00006,0.32205 -0.00122,0.64406 -0.00277,0.9661c-0.00138,0.33697 -0.00149,0.67396 -0.00177,1.01093c-0.00068,0.63761 -0.00249,1.27519 -0.00469,1.91279c-0.00246,0.72611 -0.00366,1.4522 -0.00476,2.17831c-0.00229,1.49317 -0.00631,2.98634 -0.01105,4.4795c-0.74265,0 -1.48531,0 -2.25046,0c0,-1.26793 0,-2.53587 0,-3.84224c-5.74194,0 -11.48388,0 -17.39983,0c0,1.28604 0,2.5721 0,3.89712c-0.76077,0 -1.52152,0 -2.30533,0c-0.00621,-1.97654 -0.01112,-3.95307 -0.01403,-5.92962c-0.00035,-0.23345 -0.00069,-0.46691 -0.00106,-0.70035c-0.00007,-0.04647 -0.00016,-0.09294 -0.00022,-0.14083c-0.00119,-0.75211 -0.00336,-1.50422 -0.00588,-2.25631c-0.00256,-0.77197 -0.0041,-1.54393 -0.00465,-2.31591c-0.00038,-0.47619 -0.00155,-0.95237 -0.00379,-1.42856c-0.00145,-0.32672 -0.00188,-0.65343 -0.00153,-0.98017c0.00017,-0.18839 -0.00009,-0.37676 -0.00156,-0.56515c-0.00136,-0.20462 -0.00104,-0.40917 -0.00029,-0.61379c-0.0008,-0.05905 -0.00161,-0.11811 -0.00242,-0.17895c0.00431,-0.43729 0.10376,-0.81375 0.41427,-1.13613c0.34394,-0.30586 0.64579,-0.33046 1.10317,-0.27584z" fill="#ffffff" stroke-width="1"/><path d="M45.79876,302.31315c2.13451,-0.01106 2.13453,-0.01106 3.03112,-0.01341c0.61832,-0.00162 1.23663,-0.00353 1.85494,-0.0073c0.45037,-0.00274 0.90075,-0.0045 1.35113,-0.00511c0.23828,-0.00035 0.47653,-0.00119 0.7148,-0.0032c0.22473,-0.00188 0.44942,-0.00245 0.67416,-0.00203c0.08204,-0.00007 0.16409,-0.00061 0.24611,-0.00166c0.58411,-0.00718 1.10777,0.07265 1.58923,0.43067c1.27368,1.33433 0.63809,3.52151 0.63809,5.14584c-3.33287,0 -6.66574,0 -10.09958,0c0,-1.82945 0,-3.65891 0,-5.54379z" fill="#ffffff" stroke-width="1"/><path d="M44.86566,302.25827c0.3183,0.14778 0.48124,0.37773 0.60878,0.70044c0.05443,0.19402 0.06455,0.35781 0.06583,0.55917c0.00036,0.03664 0.00074,0.07328 0.00111,0.11103c0.00104,0.12032 0.00126,0.24061 0.00138,0.36093c0.00035,0.08436 0.00072,0.16872 0.00111,0.25308c0.00065,0.17662 0.00085,0.35322 0.0008,0.52984c-0.00001,0.22503 0.00149,0.45003 0.00339,0.67506c0.00123,0.17423 0.00145,0.34847 0.00139,0.52272c0.00013,0.08288 0.00061,0.16578 0.00146,0.24866c0.00954,1.01939 0.00954,1.01939 -0.32558,1.39824c-0.29515,0.25923 -0.53153,0.3108 -0.91569,0.31035c-0.04484,0.00036 -0.08967,0.00074 -0.13585,0.00111c-0.14817,0.00104 -0.29634,0.00126 -0.4445,0.00138c-0.10324,0.00035 -0.20649,0.00072 -0.30971,0.0011c-0.21649,0.00065 -0.43297,0.00087 -0.64948,0.0008c-0.27673,-0.00001 -0.55344,0.00148 -0.83016,0.00337c-0.21332,0.00122 -0.42662,0.00145 -0.63995,0.00139c-0.10198,0.00013 -0.20396,0.00061 -0.30592,0.00146c-0.14306,0.00109 -0.28606,0.00077 -0.42911,0.0001c-0.04171,0.00061 -0.0834,0.00123 -0.12637,0.00187c-0.3631,-0.00423 -0.65568,-0.11638 -0.91433,-0.37503c-0.22693,-0.36141 -0.31633,-0.65329 -0.25729,-1.08063c0.10067,-0.33858 0.31033,-0.57689 0.60377,-0.76845c0.21353,-0.10191 0.38229,-0.1232 0.61801,-0.12223c0.10217,0.00001 0.10217,0 0.2064,0.00001c0.07376,0.00056 0.14751,0.00114 0.22127,0.00172c0.0759,0.0002 0.15181,0.00036 0.22771,0.00046c0.19915,0.00042 0.3983,0.00149 0.59745,0.00272c0.20346,0.00113 0.40694,0.00162 0.61042,0.00217c0.39878,0.00117 0.79754,0.00304 1.1963,0.00536c-0.00085,-0.06891 -0.00172,-0.13782 -0.00261,-0.20882c-0.003,-0.25748 -0.00488,-0.51496 -0.00643,-0.77243c-0.00083,-0.1111 -0.00194,-0.22221 -0.00337,-0.3333c-0.00201,-0.16038 -0.00294,-0.32073 -0.00366,-0.48112c-0.00085,-0.04908 -0.00169,-0.09816 -0.00258,-0.14872c-0.00012,-0.43089 0.07333,-0.8348 0.37886,-1.15683c0.04935,-0.05349 0.04935,-0.05349 0.0997,-0.10806c0.23103,-0.21822 0.55959,-0.16662 0.85743,-0.13894z" fill="#ffffff" stroke-width="1"/><path d="M42.21427,300.75161c0.58831,0.36994 0.9455,0.8619 1.13574,1.52359c0.0543,0.23844 0.06287,0.46995 0.06109,0.71379c-0.00028,0.05013 -0.00055,0.10028 -0.00084,0.15195c-0.01875,0.73129 -0.31038,1.29168 -0.83622,1.79318c-0.23586,0.19905 -0.49152,0.30192 -0.78216,0.39795c-0.05435,0.01811 -0.10868,0.03622 -0.16466,0.0549c-0.52612,0.05988 -0.98557,-0.08384 -1.41339,-0.39109c-0.49253,-0.41602 -0.82739,-1.00685 -0.9068,-1.65036c-0.05813,-0.75953 0.08203,-1.41383 0.56374,-2.02033c0.14066,-0.15439 0.14066,-0.15437 0.27445,-0.27445c0.04075,-0.03737 0.08151,-0.07472 0.12349,-0.11321c0.56166,-0.39572 1.31057,-0.49056 1.94557,-0.18589z" fill="#ffffff" stroke-width="1"/><path d="M54.57766,291.65191c0.05082,0.01666 0.10162,0.03333 0.15397,0.05048c1.18582,0.41695 2.06592,1.27937 2.61704,2.39858c0.04394,0.10273 0.08602,0.20629 0.12647,0.31045c0.01116,0.02788 0.02232,0.05578 0.03382,0.0845c0.35838,0.93041 0.31613,2.07058 -0.03382,2.99694c-0.01231,0.03305 -0.02461,0.06609 -0.03729,0.10014c-0.153,0.39983 -0.34009,0.75859 -0.60658,1.09565c-0.03011,0.04043 -0.06024,0.08087 -0.09126,0.12252c-0.71487,0.9262 -1.75191,1.47368 -2.89819,1.67114c-0.23133,0.01815 -0.4608,0.01937 -0.69275,0.01726c-0.05849,0.00054 -0.11696,0.00107 -0.17723,0.00162c-0.3739,-0.00114 -0.70465,-0.04641 -1.06168,-0.15683c-0.03349,-0.01008 -0.06697,-0.02015 -0.10147,-0.03052c-1.19429,-0.37854 -2.1002,-1.2387 -2.69287,-2.32529c-0.18828,-0.38177 -0.28983,-0.77186 -0.37907,-1.18554c-0.00808,-0.03534 -0.01617,-0.07069 -0.0245,-0.1071c-0.19672,-1.12449 0.04418,-2.27842 0.67539,-3.22314c0.64367,-0.90224 1.48322,-1.58393 2.56853,-1.86678c0.07541,-0.02561 0.07541,-0.02561 0.15234,-0.05174c0.72656,-0.23656 1.75925,-0.15731 2.46917,0.09772z" fill="#ffffff" stroke-width="1"/><path d="M53.22379,293.53469c0.14353,0.06256 0.20301,0.10454 0.29607,0.23282c0.02383,0.15614 0.01681,0.31031 0.01186,0.46782c-0.00068,0.09415 -0.00127,0.18828 -0.0018,0.28242c-0.00181,0.14799 -0.00431,0.29589 -0.00831,0.44384c-0.03713,0.55519 -0.03713,0.55519 0.13807,1.06078c0.11754,0.09357 0.2324,0.16083 0.36609,0.22868c0.0575,0.04553 0.1137,0.09278 0.16798,0.14211c0.025,0.02161 0.05,0.04323 0.07576,0.0655c0.03729,0.03241 0.03729,0.03241 0.07533,0.06548c0.23973,0.2071 0.48244,0.40946 0.72922,0.60813c0.18291,0.15246 0.18289,0.15246 0.23948,0.22259c-0.00575,0.16384 -0.00575,0.16385 -0.04599,0.32195c-0.16149,0.10767 -0.2238,0.11385 -0.41392,0.09199c-0.11498,-0.07114 -0.11498,-0.07116 -0.22996,-0.17247c-0.06536,-0.05648 -0.06536,-0.05646 -0.13205,-0.11408c-0.02318,-0.02054 -0.04634,-0.04107 -0.07023,-0.06222c-0.10424,-0.09216 -0.20999,-0.18254 -0.31568,-0.27304c-0.05522,-0.0473 -0.11037,-0.09468 -0.16546,-0.14212c-0.22758,-0.19578 -0.46084,-0.38366 -0.69634,-0.56981c-0.35768,-0.28465 -0.35768,-0.28464 -0.38055,-0.47028c-0.00049,-0.03986 -0.00097,-0.0797 -0.00148,-0.12075c-0.00074,-0.04528 -0.00148,-0.09057 -0.00223,-0.13723c-0.00025,-0.04886 -0.00049,-0.09774 -0.00075,-0.14809c-0.00042,-0.05031 -0.00083,-0.1006 -0.00126,-0.15243c-0.00067,-0.10647 -0.00109,-0.21295 -0.00125,-0.31941c-0.00055,-0.16284 -0.00281,-0.32559 -0.00512,-0.48842c-0.00043,-0.10343 -0.00077,-0.20684 -0.001,-0.31026c-0.0009,-0.04867 -0.0018,-0.09736 -0.00272,-0.14752c0.00207,-0.33758 0.00207,-0.33758 0.13764,-0.52046c0.12074,-0.08262 0.12073,-0.08262 0.23859,-0.08549z" fill="#848487" stroke-width="1"/><text transform="translate(124.59,310) scale(0.5,0.5)" font-size="40" xml:space="preserve" fill="#858588" stroke-width="1" font-family="Sans Serif" font-weight="normal" text-anchor="start"><tspan x="0" dy="0">Sueño</tspan></text></g></g></svg>