<svg version="1.1" xmlns="http://www.w3.org/2000/svg" xmlns:xlink="http://www.w3.org/1999/xlink" width="269.79494" height="1" viewBox="0,0,269.79494,1"><g transform="translate(-0.45612,-304)"><g fill="#00c066" stroke="none" stroke-width="0" stroke-miterlimit="10"><path d="M0.45612,305v-1h6.058v1z"/><path d="M8.42944,305v-1h6.058v1z"/><path d="M16.44156,305v-1h6.05799v1z"/><path d="M24.37706,305v-1h6.05799v1z"/><path d="M32.53225,305v-1h6.05799v1z"/><path d="M40.40978,305v-1h6.058v1z"/><path d="M48.4219,305v-1h6.058v1z"/><path d="M56.3574,305v-1h6.058v1z"/><path d="M64.49979,305v-1h6.058v1z"/><path d="M72.47311,305v-1h6.058v1z"/><path d="M80.48524,305v-1h6.058v1z"/><path d="M88.42074,305v-1h6.058v1z"/><path d="M96.57592,305v-1h6.058v1z"/><path d="M104.45345,305v-1h6.058v1z"/><path d="M112.46558,305v-1h6.058v1z"/><path d="M120.40108,305v-1h6.058v1z"/><path d="M128.48086,305v-1h6.05799v1z"/><path d="M136.45418,305v-1h6.05799v1z"/><path d="M144.46631,305v-1h6.058v1z"/><path d="M152.40181,305v-1h6.05799v1z"/><path d="M160.55699,305v-1h6.058v1z"/><path d="M168.43452,305v-1h6.05799v1z"/><path d="M176.44665,305v-1h6.058v1z"/><path d="M184.38215,305v-1h6.058v1z"/><path d="M192.52454,305v-1h6.058v1z"/><path d="M200.49786,305v-1h6.058v1z"/><path d="M208.50998,305v-1h6.058v1z"/><path d="M216.44548,305v-1h6.058v1z"/><path d="M224.60067,305v-1h6.05799v1z"/><path d="M232.4782,305v-1h6.058v1z"/><path d="M240.49032,305v-1h6.058v1z"/><path d="M248.42582,305v-1h6.058v1z"/><path d="M256.25756,305v-1h6.058v1z"/><path d="M264.19306,305v-1h6.058v1z"/></g></g></svg>