<svg version="1.1" xmlns="http://www.w3.org/2000/svg" xmlns:xlink="http://www.w3.org/1999/xlink" width="286.67764" height="420.01073" viewBox="0,0,286.67764,420.01073"><g transform="translate(-11.16118,-78.6438)"><g stroke-miterlimit="10"><path d="M11.16118,108.53436c0,-13.86952 13.04489,-29.89056 33.31901,-29.89056c61.00323,0 187.45709,0 220.93409,0c15.92821,0 32.42454,17.43506 32.42454,32.155c0,17.28699 0,279.63471 0,360.00365c0,17.13916 -16.42532,27.49394 -32.29426,27.51981c-30.56539,0.04982 -149.05768,0.22646 -213.89391,0.33214c-29.53173,0.04814 -39.93373,-12.84283 -39.96789,-32.97119c-0.14437,-85.05798 -0.52158,-357.14885 -0.52158,-357.14885z" fill="#ffffff" stroke="none" stroke-width="0" stroke-linecap="butt"/><text transform="translate(28.36216,122.53604) scale(0.33374,0.32277)" font-size="40" xml:space="preserve" fill="#000000" stroke="#000000" stroke-width="1" stroke-linecap="butt" font-family="&quot;Arial&quot;, Sans Serif" font-weight="normal" text-anchor="start"><tspan x="0" dy="0">Registrar Comida</tspan></text><path d="M273.58102,179.25161h-206.7451" fill="none" stroke="#f1f1f3" stroke-width="1" stroke-linecap="round"/><path d="M66.39693,242.7808h206.7451" fill="none" stroke="#f1f1f3" stroke-width="1" stroke-linecap="round"/><path d="M274.02001,305.02389h-206.7451" fill="none" stroke="#f1f1f3" stroke-width="1" stroke-linecap="round"/><path d="M273.58102,368.55308h-206.7451" fill="none" stroke="#f1f1f3" stroke-width="1" stroke-linecap="round"/><path d="M67.7139,424.17658h206.7451" fill="none" stroke="#f1f1f3" stroke-width="1" stroke-linecap="round"/><path d="M274.02001,487.70577h-206.7451" fill="none" stroke="#f1f1f3" stroke-width="1" stroke-linecap="round"/><path d="M247.19412,144.86994v22.92112" fill="none" stroke="#f1f1f3" stroke-width="1" stroke-linecap="round"/><path d="M247.19412,206.14003v22.92112" fill="none" stroke="#f1f1f3" stroke-width="1" stroke-linecap="round"/><path d="M247.19412,288.01077v-22.92111" fill="none" stroke="#f1f1f3" stroke-width="1" stroke-linecap="round"/><path d="M247.19412,326.35975v22.92111" fill="none" stroke="#f1f1f3" stroke-width="1" stroke-linecap="round"/><path d="M247.19412,404.35632v-22.92111" fill="none" stroke="#f1f1f3" stroke-width="1" stroke-linecap="round"/><path d="M247.19412,465.62641v-22.92111" fill="none" stroke="#f1f1f3" stroke-width="1" stroke-linecap="round"/></g></g></svg>