<svg version="1.1" xmlns="http://www.w3.org/2000/svg" xmlns:xlink="http://www.w3.org/1999/xlink" width="256.68056" height="41.42285" viewBox="0,0,256.68056,41.42285"><g transform="translate(-24.97489,-317.29069)"><g stroke-miterlimit="10"><g stroke="none"><path d="M24.97489,338.00171c0,-11.43838 9.27264,-20.71102 20.71102,-20.71102c11.43838,0 20.71102,9.27264 20.71102,20.71102c0,11.43838 -9.27264,20.71102 -20.71102,20.71102c-11.43838,0 -20.71102,-9.27264 -20.71102,-20.71102z" fill="#848487" stroke-width="0"/><g fill="#ffffff" stroke-width="1"><path d="M53.32672,325.4728l0.09929,0.15603v12.0426v12.0426l-0.12766,0.26478c-0.16076,0.34515 -0.46809,0.65248 -0.80851,0.80851c-0.22222,0.10402 -0.3357,0.12293 -0.64776,0.12293c-0.487,0 -0.86525,-0.16076 -1.18677,-0.50118c-0.29787,-0.31679 -0.41135,-0.59102 -0.43026,-1.05438c-0.01418,-0.20804 0.07565,-1.91017 0.19385,-3.78725c0.1513,-2.48228 0.19858,-3.46101 0.16549,-3.60758c-0.09456,-0.43026 -0.17494,-0.52483 -0.95509,-1.18677c-0.52955,-0.44445 -0.93617,-1.08275 -1.11584,-1.75414c-0.14184,-0.52483 -0.20804,-1.36171 -0.20804,-2.57211c0,-2.21277 0.39716,-4.64777 1.13476,-6.9031c0.74232,-2.2837 1.89126,-4.03311 2.88417,-4.40191c0.35934,-0.13239 0.80851,0.01418 1.00237,0.33097z"/><path d="M39.43083,325.68671c0.08983,0.14657 0.09456,0.25532 0.09456,2.82271c0,2.50119 0.00946,2.68559 0.08983,2.86526c0.23641,0.52483 0.95509,0.59575 1.3097,0.13239l0.13712,-0.17494l0.02364,-2.69977c0.02364,-2.44445 0.0331,-2.71396 0.10402,-2.85107c0.27896,-0.50591 1.06383,-0.5201 1.36644,-0.02837l0.11348,0.17967l0.02364,2.7045c0.02364,2.63831 0.02837,2.7045 0.12293,2.83216c0.15603,0.21277 0.33097,0.31679 0.57684,0.34043c0.38298,0.0331 0.71395,-0.20331 0.80851,-0.58629c0.0331,-0.13239 0.05201,-1.0922 0.05201,-2.78488c0,-2.85107 -0.00946,-2.7707 0.29787,-2.95509c0.31679,-0.19385 0.77542,-0.06147 0.9078,0.25532c0.08983,0.21277 0.3688,5.68324 0.34043,6.6005c-0.02364,0.73759 -0.08983,1.03074 -0.38298,1.63121c-0.24114,0.50118 -0.55792,0.91253 -1.07329,1.38535c-0.82743,0.76596 -1.28606,1.70213 -1.34752,2.75178c-0.02364,0.34515 0.00946,0.79433 0.14184,1.93854c0.41608,3.6785 0.7896,8.56268 0.69031,9.07805c-0.15603,0.8227 -0.79906,1.461 -1.62648,1.6123c-1.04019,0.19385 -2.08039,-0.54847 -2.26006,-1.62176c-0.04255,-0.22695 -0.0331,-0.59575 0.02837,-1.57447c0.1513,-2.39717 0.46809,-5.9291 0.73759,-8.22698c0.11348,-0.94563 0.10402,-1.31915 -0.05201,-1.93854c-0.19385,-0.77069 -0.66194,-1.50828 -1.34752,-2.12294c-0.77069,-0.69977 -1.21041,-1.52719 -1.34279,-2.54374c-0.04255,-0.32151 -0.01891,-0.98818 0.11348,-3.61231c0.17494,-3.51774 0.16549,-3.42791 0.46809,-3.61231c0.29787,-0.1844 0.70922,-0.08984 0.88417,0.20331z"/></g></g><text transform="translate(88.96219,343.04277) scale(0.33374,0.32277)" font-size="40" xml:space="preserve" fill="#000000" stroke="#000000" stroke-width="0" font-family="&quot;Arial&quot;, Sans Serif" font-weight="normal" text-anchor="start"><tspan x="0" dy="0">Bocadillo / Mañana</tspan></text><text transform="translate(260.82177,342.9633) scale(0.58506,0.56584)" font-size="40" xml:space="preserve" fill="#000000" stroke="#000000" stroke-width="0" font-family="Serif" font-weight="normal" text-anchor="start"><tspan x="0" dy="0">+</tspan></text><path d="M24.97489,358.71354v-41.42204h256.68056v41.42204z" fill-opacity="0.00392" fill="#000000" stroke="none" stroke-width="0"/></g></g></svg>