<svg version="1.1" xmlns="http://www.w3.org/2000/svg" xmlns:xlink="http://www.w3.org/1999/xlink" width="287.08748" height="311.2293" viewBox="0,0,287.08748,311.2293"><g transform="translate(-10.95628,-80.79938)"><g stroke-miterlimit="10"><path d="M11.22578,360.17781c-0.19701,-49.79319 -0.4827,-145.75045 -0.01956,-197.80669c0.19251,-21.63758 16.46033,-35.69032 28.99306,-35.69032c59.07532,0 180.06764,0 229.87722,0c17.20559,0 27.96726,16.71572 27.96726,32.95273c0,32.06256 0,147.41926 0,202.59209c0,18.16255 -13.5498,29.80307 -27.28513,29.80307c-32.15946,0 -165.05413,0 -227.1487,0c-19.67652,0 -32.30721,-12.40509 -32.38415,-31.85087z" fill="#ffffff" stroke="none" stroke-width="0"/><text transform="translate(58.40963,376.73841) scale(0.33374,0.32277)" font-size="40" xml:space="preserve" fill="#858588" stroke="#000000" stroke-width="0" font-family="&quot;Arial&quot;, Sans Serif" font-weight="normal" text-anchor="start"><tspan x="0" dy="0">Defina las Series y Repeticiones</tspan></text><text transform="translate(58.40963,376.73841) scale(0.33374,0.32277)" font-size="40" xml:space="preserve" fill="#858588" stroke="#000000" stroke-width="0" font-family="&quot;Arial&quot;, Sans Serif" font-weight="normal" text-anchor="start"><tspan x="0" dy="0">Defina las Series y Repeticiones</tspan></text><text transform="translate(18.99219,96.65024) scale(0.44903,0.43427)" font-size="40" xml:space="preserve" fill="#000000" stroke="#000000" stroke-width="1" font-family="&quot;Arial&quot;, Sans Serif" font-weight="400" text-anchor="start"><tspan x="0" dy="0">Definir las Series y Repeticiones</tspan></text><path d="M18.99219,101.86148v-20.84496h258.55183v20.84496z" fill-opacity="0.00392" fill="#000000" stroke="none" stroke-width="0"/></g></g></svg>