<svg version="1.1" xmlns="http://www.w3.org/2000/svg" xmlns:xlink="http://www.w3.org/1999/xlink" width="286.67763" height="100.15932" viewBox="0,0,286.67763,100.15932"><g transform="translate(-11.16119,-253.92034)"><g stroke="none" stroke-miterlimit="10"><path d="M40.13119,354.07966c-15.99969,0 -28.97,-12.31217 -28.97,-27.5v-45.15932c0,-15.18783 12.97031,-27.5 28.97,-27.5h228.73763c15.99969,0 28.97,12.31217 28.97,27.5v45.15932c0,15.18783 -12.97031,27.5 -28.97,27.5z" fill="#ffffff" stroke-width="0"/><path d="M33.32156,283.52639c0,-7.81036 6.33155,-14.14191 14.14191,-14.14191c7.81036,0 14.14192,6.33155 14.14192,14.14191c0,7.81036 -6.33155,14.14191 -14.14192,14.14191c-7.81036,0 -14.14191,-6.33155 -14.14191,-14.14191z" fill="#848487" stroke-width="0"/><path d="M40.77789,280.01055c0.25325,0.10532 0.3891,0.32374 0.49288,0.56871c0.4843,1.93723 0.03791,3.99356 0.03791,5.99041c3.97869,0 7.95739,0 12.05665,0c0,-1.1886 0,-2.3772 0,-3.60183c0.16355,-0.32709 0.25334,-0.48459 0.54501,-0.66113c0.20394,-0.0437 0.40095,-0.01459 0.5853,0.08294c0.23746,0.16762 0.35448,0.37493 0.42416,0.65402c0.02888,0.26801 0.01918,0.53962 0.01721,0.80873c-0.00004,0.08223 -0.00002,0.16446 0.00007,0.24669c0.00004,0.22245 -0.00084,0.44488 -0.00191,0.66732c-0.00095,0.23276 -0.00103,0.46553 -0.00122,0.69829c-0.00047,0.44042 -0.00172,0.88082 -0.00324,1.32124c-0.0017,0.50155 -0.00253,1.00309 -0.00329,1.50464c-0.00158,1.03139 -0.00436,2.06278 -0.00763,3.09416c-0.51298,0 -1.02596,0 -1.55448,0c0,-0.87581 0,-1.75162 0,-2.65398c-3.96618,0 -7.93236,0 -12.01873,0c0,0.88832 0,1.77665 0,2.69189c-0.52549,0 -1.05097,0 -1.59238,0c-0.00429,-1.36527 -0.00768,-2.73054 -0.00969,-4.09582c-0.00024,-0.16125 -0.00048,-0.32251 -0.00073,-0.48376c-0.00005,-0.0321 -0.00011,-0.0642 -0.00015,-0.09728c-0.00082,-0.51951 -0.00232,-1.03902 -0.00406,-1.55852c-0.00177,-0.53323 -0.00283,-1.06645 -0.00321,-1.59969c-0.00026,-0.32892 -0.00107,-0.65784 -0.00262,-0.98676c-0.001,-0.22568 -0.0013,-0.45135 -0.00106,-0.67704c0.00012,-0.13013 -0.00006,-0.26024 -0.00108,-0.39037c-0.00094,-0.14134 -0.00072,-0.28263 -0.0002,-0.42397c-0.00055,-0.04079 -0.00111,-0.08158 -0.00167,-0.12361c0.00298,-0.30205 0.07167,-0.56209 0.28615,-0.78477c0.23757,-0.21127 0.44607,-0.22826 0.762,-0.19053z" fill="#ffffff" stroke-width="1"/><path d="M46.04793,282.36122c1.47439,-0.00764 1.4744,-0.00764 2.09371,-0.00926c0.4271,-0.00112 0.85419,-0.00244 1.28128,-0.00504c0.31109,-0.00189 0.62218,-0.00311 0.93328,-0.00353c0.16459,-0.00024 0.32916,-0.00082 0.49374,-0.00221c0.15523,-0.0013 0.31043,-0.00169 0.46567,-0.0014c0.05667,-0.00005 0.11334,-0.00042 0.17,-0.00115c0.40347,-0.00496 0.76518,0.05018 1.09774,0.29748c0.87978,0.92167 0.44075,2.43244 0.44075,3.55443c-2.30214,0 -4.60428,0 -6.97617,0c0,-1.26367 0,-2.52735 0,-3.82931z" fill="#ffffff" stroke-width="1"/><path d="M45.4034,282.32331c0.21986,0.10208 0.33241,0.26091 0.42051,0.48382c0.0376,0.13402 0.04459,0.24715 0.04547,0.38624c0.00025,0.02531 0.00051,0.05062 0.00077,0.07669c0.00072,0.08311 0.00087,0.1662 0.00095,0.24931c0.00024,0.05827 0.0005,0.11654 0.00077,0.17481c0.00045,0.122 0.00059,0.24398 0.00055,0.36598c-0.00001,0.15544 0.00103,0.31085 0.00234,0.46629c0.00085,0.12035 0.001,0.2407 0.00096,0.36106c0.00009,0.05725 0.00042,0.11451 0.00101,0.17176c0.00659,0.70413 0.00659,0.70413 -0.22489,0.96582c-0.20387,0.17906 -0.36715,0.21468 -0.6325,0.21437c-0.03097,0.00025 -0.06194,0.00051 -0.09384,0.00077c-0.10235,0.00072 -0.20469,0.00087 -0.30703,0.00095c-0.07131,0.00024 -0.14263,0.0005 -0.21393,0.00076c-0.14954,0.00045 -0.29907,0.0006 -0.44862,0.00055c-0.19115,-0.00001 -0.38228,0.00102 -0.57342,0.00233c-0.14735,0.00084 -0.29468,0.001 -0.44204,0.00096c-0.07044,0.00009 -0.14088,0.00042 -0.21131,0.00101c-0.09882,0.00075 -0.19759,0.00053 -0.2964,0.00007c-0.02881,0.00042 -0.05761,0.00085 -0.08729,0.00129c-0.25081,-0.00292 -0.4529,-0.08039 -0.63156,-0.25905c-0.15675,-0.24964 -0.2185,-0.45125 -0.17772,-0.74643c0.06954,-0.23387 0.21436,-0.39848 0.41705,-0.5308c0.14749,-0.07039 0.26406,-0.0851 0.42688,-0.08443c0.07057,0.00001 0.07057,0 0.14257,0.00001c0.05095,0.00039 0.10189,0.00079 0.15284,0.00119c0.05243,0.00014 0.10486,0.00025 0.15729,0.00032c0.13756,0.00029 0.27512,0.00103 0.41268,0.00188c0.14054,0.00078 0.28109,0.00112 0.42164,0.0015c0.27545,0.00081 0.55089,0.0021 0.82633,0.0037c-0.00059,-0.0476 -0.00119,-0.0952 -0.0018,-0.14424c-0.00207,-0.17785 -0.00337,-0.3557 -0.00444,-0.53355c-0.00057,-0.07674 -0.00134,-0.15349 -0.00233,-0.23022c-0.00139,-0.11078 -0.00203,-0.22154 -0.00253,-0.33233c-0.00059,-0.0339 -0.00117,-0.0678 -0.00178,-0.10273c-0.00008,-0.29763 0.05065,-0.57663 0.26169,-0.79907c0.03409,-0.03695 0.03409,-0.03695 0.06887,-0.07464c0.15958,-0.15073 0.38653,-0.11509 0.59226,-0.09597z" fill="#ffffff" stroke-width="1"/><path d="M43.57198,281.2826c0.40637,0.25553 0.65309,0.59535 0.7845,1.0524c0.03751,0.1647 0.04343,0.32461 0.0422,0.49304c-0.00019,0.03463 -0.00038,0.06927 -0.00058,0.10496c-0.01295,0.50513 -0.21439,0.89221 -0.57761,1.23862c-0.16292,0.13749 -0.33951,0.20855 -0.54027,0.27488c-0.03754,0.01251 -0.07507,0.02502 -0.11374,0.03792c-0.36341,0.04136 -0.68077,-0.05791 -0.97628,-0.27014c-0.34021,-0.28736 -0.57151,-0.69547 -0.62636,-1.13997c-0.04015,-0.52464 0.05666,-0.97659 0.3894,-1.39552c0.09716,-0.10664 0.09716,-0.10663 0.18957,-0.18957c0.02815,-0.02581 0.0563,-0.05161 0.0853,-0.0782c0.38796,-0.27334 0.90526,-0.33885 1.34388,-0.1284z" fill="#ffffff" stroke-width="1"/><g stroke-width="1"><path d="M52.11185,274.99709c0.0351,0.01151 0.07019,0.02302 0.10635,0.03487c0.81909,0.288 1.42701,0.88371 1.80769,1.65679c0.03035,0.07096 0.05942,0.14249 0.08736,0.21444c0.00771,0.01926 0.01542,0.03853 0.02336,0.05837c0.24755,0.64267 0.21836,1.43023 -0.02336,2.0701c-0.0085,0.02283 -0.017,0.04565 -0.02576,0.06917c-0.10568,0.27618 -0.23491,0.52399 -0.41899,0.75681c-0.0208,0.02793 -0.04161,0.05586 -0.06304,0.08463c-0.49379,0.63976 -1.21011,1.01793 -2.00189,1.15432c-0.15979,0.01254 -0.31829,0.01338 -0.47851,0.01192c-0.0404,0.00037 -0.08079,0.00074 -0.12242,0.00112c-0.25827,-0.00079 -0.48673,-0.03206 -0.73334,-0.10833c-0.02313,-0.00696 -0.04626,-0.01392 -0.07009,-0.02108c-0.82494,-0.26147 -1.45069,-0.85562 -1.86007,-1.60617c-0.13005,-0.2637 -0.2002,-0.53315 -0.26184,-0.8189c-0.00558,-0.02441 -0.01117,-0.04883 -0.01692,-0.07398c-0.13588,-0.77673 0.03052,-1.57379 0.46652,-2.22635c0.44461,-0.62321 1.02452,-1.09408 1.77418,-1.28946c0.05209,-0.01769 0.05209,-0.01769 0.10523,-0.03574c0.50186,-0.1634 1.21518,-0.10866 1.70555,0.0675z" fill="#ffffff"/><path d="M51.17668,276.2976c0.09914,0.04321 0.14023,0.07221 0.20451,0.16082c0.01646,0.10785 0.01161,0.21434 0.00819,0.32314c-0.00047,0.06503 -0.00088,0.13005 -0.00124,0.19508c-0.00125,0.10222 -0.00298,0.20438 -0.00574,0.30658c-0.02565,0.38349 -0.02565,0.38349 0.09537,0.73272c0.08119,0.06463 0.16053,0.11109 0.25287,0.15796c0.03972,0.03145 0.07854,0.06409 0.11603,0.09816c0.01727,0.01493 0.03454,0.02986 0.05233,0.04524c0.02576,0.02239 0.02576,0.02239 0.05203,0.04523c0.16559,0.14305 0.33324,0.28283 0.5037,0.42006c0.12634,0.10531 0.12633,0.10531 0.16542,0.15375c-0.00397,0.11317 -0.00397,0.11318 -0.03177,0.22238c-0.11155,0.07437 -0.15459,0.07864 -0.28591,0.06354c-0.07942,-0.04914 -0.07942,-0.04915 -0.15884,-0.11913c-0.04515,-0.03901 -0.04515,-0.039 -0.09121,-0.0788c-0.01601,-0.01419 -0.03201,-0.02837 -0.04851,-0.04298c-0.072,-0.06366 -0.14505,-0.12609 -0.21805,-0.1886c-0.03814,-0.03267 -0.07624,-0.0654 -0.11429,-0.09817c-0.1572,-0.13523 -0.31832,-0.26501 -0.48099,-0.39359c-0.24706,-0.19662 -0.24706,-0.19661 -0.26286,-0.32484c-0.00034,-0.02753 -0.00067,-0.05505 -0.00102,-0.08341c-0.00051,-0.03128 -0.00102,-0.06256 -0.00154,-0.09479c-0.00017,-0.03375 -0.00034,-0.06751 -0.00052,-0.10229c-0.00029,-0.03475 -0.00057,-0.06949 -0.00087,-0.10529c-0.00046,-0.07354 -0.00075,-0.14709 -0.00086,-0.22063c-0.00038,-0.11248 -0.00194,-0.2249 -0.00354,-0.33737c-0.0003,-0.07144 -0.00053,-0.14287 -0.00069,-0.21431c-0.00062,-0.03362 -0.00124,-0.06725 -0.00188,-0.1019c0.00143,-0.23318 0.00143,-0.23318 0.09507,-0.3595c0.0834,-0.05707 0.08339,-0.05707 0.1648,-0.05905z" fill="#848487"/></g></g></g></svg>