<svg version="1.1" xmlns="http://www.w3.org/2000/svg" xmlns:xlink="http://www.w3.org/1999/xlink" width="309.39053" height="196.11555" viewBox="0,0,309.39053,196.11555"><g transform="translate(0.19526,0)"><g stroke="none" stroke-width="0" stroke-miterlimit="10"><path d="M281.98656,168.30702c-44.32881,0 -282.18182,-2.36364 -282.18182,-2.36364v-74h309c0,0 0,33.99741 0,46.54546c0,5.47949 0.39053,57.62671 0.39053,57.62671l-10.84507,-0.26307c0,0 -2.6978,-27.54546 -16.36363,-27.54546z" fill="#f1f1f3"/><path d="M10.64981,195.85248l-10.84507,0.26307c0,0 0.39053,-52.14722 0.39053,-57.62671c0,-12.54805 0,-46.54545 0,-46.54545h309v74c0,0 -237.85301,2.36364 -282.18182,2.36364c-13.66583,0 -16.36364,27.54546 -16.36364,27.54546z" fill="#f2f2f2"/><path d="M0,91.94338v-91.94338h309v91.94338z" fill="#f1f1f3"/></g></g></svg>