<svg version="1.1" xmlns="http://www.w3.org/2000/svg" xmlns:xlink="http://www.w3.org/1999/xlink" width="286.67763" height="100.15932" viewBox="0,0,286.67763,100.15932"><g transform="translate(-11.16118,-251.40061)"><g stroke="none" stroke-miterlimit="10"><path d="M40.13118,351.55993c-15.99969,0 -28.97,-12.31217 -28.97,-27.5v-45.15932c0,-15.18783 12.97031,-27.5 28.97,-27.5h228.73763c15.99969,0 28.97,12.31217 28.97,27.5v45.15932c0,15.18783 -12.97031,27.5 -28.97,27.5z" fill="#ffffff" stroke-width="0"/><g><path d="M33.32156,281.39919c0,-7.81036 6.33155,-14.14191 14.14191,-14.14191c7.81036,0 14.14192,6.33155 14.14192,14.14191c0,7.81036 -6.33155,14.14191 -14.14192,14.14191c-7.81036,0 -14.14191,-6.33155 -14.14191,-14.14191z" fill="#848487" stroke-width="0"/><g fill="#ffffff" stroke-width="1"><path d="M52.68078,272.84419l0.0678,0.10654v8.22294v8.22294l-0.08717,0.1808c-0.10977,0.23568 -0.31962,0.44553 -0.55207,0.55207c-0.15174,0.07103 -0.22922,0.08394 -0.4423,0.08394c-0.33253,0 -0.59081,-0.10977 -0.81035,-0.34222c-0.20339,-0.21631 -0.28088,-0.40356 -0.29379,-0.71995c-0.00968,-0.14205 0.05166,-1.3043 0.13236,-2.58601c0.10331,-1.69495 0.13559,-2.36325 0.113,-2.46333c-0.06457,-0.29379 -0.11945,-0.35836 -0.65216,-0.81035c-0.36159,-0.30348 -0.63924,-0.73932 -0.76192,-1.19776c-0.09685,-0.35836 -0.14205,-0.9298 -0.14205,-1.75629c0,-1.51093 0.27119,-3.17359 0.77484,-4.71358c0.50687,-1.55936 1.29139,-2.75389 1.96937,-3.00572c0.24536,-0.0904 0.55207,0.00968 0.68444,0.22599z"/><path d="M43.19237,272.99025c0.06134,0.10008 0.06457,0.17434 0.06457,1.92741c0,1.70786 0.00646,1.83378 0.06134,1.95646c0.16143,0.35836 0.65216,0.40679 0.89429,0.0904l0.09363,-0.11945l0.01614,-1.84346c0.01614,-1.66912 0.0226,-1.85315 0.07103,-1.94677c0.19048,-0.34545 0.72641,-0.35514 0.93303,-0.01937l0.07749,0.12268l0.01614,1.84669c0.01614,1.80149 0.01937,1.84669 0.08394,1.93386c0.10654,0.14528 0.22599,0.21631 0.39388,0.23245c0.26151,0.0226 0.4875,-0.13882 0.55207,-0.40033c0.0226,-0.0904 0.03551,-0.74578 0.03551,-1.90157c0,-1.94677 -0.00646,-1.89189 0.20339,-2.0178c0.21631,-0.13236 0.52947,-0.04197 0.61986,0.17434c0.06134,0.14528 0.25182,3.88063 0.23245,4.50696c-0.01614,0.50364 -0.06134,0.70381 -0.26151,1.11382c-0.16466,0.34222 -0.38096,0.62309 -0.73286,0.94595c-0.56499,0.52301 -0.87815,1.16225 -0.92011,1.87897c-0.01614,0.23568 0.00646,0.54239 0.09685,1.32368c0.28411,2.51176 0.53916,5.84678 0.47136,6.19868c-0.10654,0.56176 -0.54561,0.9976 -1.11059,1.10091c-0.71026,0.13236 -1.42053,-0.37451 -1.54322,-1.10737c-0.02905,-0.15497 -0.0226,-0.40679 0.01937,-1.07508c0.10331,-1.63684 0.31962,-4.04851 0.50364,-5.61755c0.07749,-0.6457 0.07103,-0.90074 -0.03551,-1.32368c-0.13236,-0.52624 -0.45199,-1.02988 -0.92011,-1.44959c-0.52624,-0.47782 -0.82649,-1.0428 -0.91688,-1.73692c-0.02905,-0.21953 -0.01291,-0.67475 0.07749,-2.46656c0.11945,-2.40199 0.113,-2.34065 0.31962,-2.46656c0.20339,-0.12591 0.48427,-0.06134 0.60373,0.13882z"/></g></g></g></g></svg>