<svg version="1.1" xmlns="http://www.w3.org/2000/svg" xmlns:xlink="http://www.w3.org/1999/xlink" width="286.67763" height="100.15932" viewBox="0,0,286.67763,100.15932"><g transform="translate(-11.16118,-253.92034)"><g stroke="none" stroke-miterlimit="10"><path d="M40.13119,354.07966c-15.99969,0 -28.97,-12.31217 -28.97,-27.5v-45.15932c0,-15.18783 12.97031,-27.5 28.97,-27.5h228.73763c15.99969,0 28.97,12.31217 28.97,27.5v45.15932c0,15.18783 -12.97031,27.5 -28.97,27.5z" fill="#ffffff" stroke-width="0"/><path d="M26.98984,304c0,-11.30726 9.16635,-20.47361 20.47361,-20.47361c11.30726,0 20.47362,9.16635 20.47362,20.47361c0,11.30726 -9.16635,20.47361 -20.47362,20.47361c-11.30726,0 -20.47361,-9.16635 -20.47361,-20.47361z" fill="#848487" stroke-width="0"/><path d="M40.02093,316.00706c-0.25318,-0.11851 -0.47943,-0.39323 -1.07197,-1.28743c-2.57488,-3.88926 -4.00238,-6.08706 -4.13166,-6.3564c-0.29628,-0.63025 -0.15622,-1.00194 0.6141,-1.61604c1.01271,-0.80263 1.28745,-0.91037 1.63758,-0.64641c0.12928,0.09697 0.6518,0.83495 1.49753,2.1224c1.17432,1.77225 3.63069,5.46758 3.86772,5.81773c0.11313,0.16161 0.1239,0.46326 0.02693,0.63564c-0.09157,0.17238 -1.35747,1.13661 -1.68068,1.28743c-0.31782,0.15082 -0.51174,0.16161 -0.75953,0.0431z" fill="#ffffff" stroke-width="1"/><path d="M44.07179,315.29062c-0.12928,-0.167 -1.37902,-2.0362 -2.77958,-4.15321c-4.90197,-7.40683 -4.8481,-7.32064 -4.8481,-7.70849c0,-0.31243 0.25318,-0.63025 0.92114,-1.16355c0.92114,-0.73799 1.29822,-0.94269 1.65912,-0.88882c0.22625,0.03771 0.6572,0.54407 1.37363,1.62681c3.37213,5.08512 6.56649,9.94939 6.67422,10.15947c0.28551,0.571 0.24779,0.81879 -0.22087,1.27128c-0.42017,0.4094 -1.49753,1.21202 -1.76148,1.30899c-0.39323,0.14005 -0.64641,0.03233 -1.0181,-0.45249z" fill="#ffffff" stroke-width="1"/><path d="M36.28249,314.30484c-0.29628,-0.03233 -1.34669,-1.59988 -1.34669,-2.01466c0,-0.17238 0.41479,-0.67335 0.6518,-0.79186c0.17238,-0.0808 0.22085,-0.08618 0.404,-0.02693c0.18854,0.06464 0.26933,0.15621 0.73799,0.85112c0.56023,0.83495 0.6518,1.03426 0.57638,1.3036c-0.07003,0.23702 -0.19931,0.36092 -0.56561,0.53868c-0.17777,0.0808 -0.38246,0.14544 -0.45787,0.14005z" fill="#ffffff" stroke-width="1"/><path d="M44.88518,307.78144c-0.14544,-0.01077 -0.30166,-0.06464 -0.3663,-0.1239c-0.1239,-0.11313 -0.78648,-1.07197 -0.92653,-1.35209c-0.1239,-0.23164 -0.11313,-0.59794 0.01077,-0.80263c0.10774,-0.17238 5.9093,-4.70805 6.25406,-4.88581c0.19931,-0.10235 0.45249,-0.09157 0.66258,0.03233c0.05926,0.03771 0.3232,0.38785 0.58177,0.78108c0.42556,0.64102 0.47943,0.74876 0.47943,0.96423c0,0.13467 -0.03771,0.3232 -0.0808,0.41479c-0.06464,0.12928 -0.87805,0.79186 -3.00044,2.43483c-1.59987,1.23896 -3.01121,2.32709 -3.13511,2.40789c-0.18854,0.12928 -0.25856,0.15082 -0.47943,0.12928z" fill="#ffffff" stroke-width="1"/><path d="M55.34094,306.27853c-0.11851,-0.11851 -0.74876,-1.02887 -1.41134,-2.02543c-4.56799,-6.90047 -6.08706,-9.21679 -6.21096,-9.45919c-0.20469,-0.39862 -0.20469,-0.75953 0.01077,-1.06658c0.31782,-0.4471 1.73455,-1.51368 2.10624,-1.58371c0.47404,-0.08618 0.73799,0.20469 2.37557,2.68262c6.37257,9.63696 5.97394,9.02825 6.08168,9.40532c0.0808,0.26395 0.0808,0.30705 0,0.52251c-0.10774,0.28011 -0.45249,0.6141 -1.21202,1.17971c-0.60871,0.45249 -0.80802,0.571 -1.05581,0.62487c-0.22625,0.04848 -0.44172,-0.03771 -0.68412,-0.28011z" fill="#ffffff" stroke-width="1"/><path d="M58.18515,302.03375c-0.19392,0 -0.24779,-0.03233 -0.4902,-0.29089c-0.14544,-0.15621 -0.8134,-1.11507 -1.48137,-2.12778c-0.66797,-1.01271 -1.7884,-2.71493 -2.49947,-3.78152c-1.43289,-2.16549 -1.47059,-2.24091 -1.19048,-2.5695c0.18315,-0.22087 1.39517,-1.13122 1.66991,-1.25512c0.30166,-0.14005 0.51174,-0.12928 0.77031,0.0431c0.29089,0.19931 0.571,0.56561 1.33592,1.75609c0.35015,0.53868 1.32515,2.02004 2.16549,3.29672c0.84572,1.27128 1.59448,2.43483 1.65912,2.58565c0.07003,0.14544 0.12928,0.35015 0.12928,0.4471c0,0.23164 -0.12928,0.53868 -0.31243,0.73261c-0.18854,0.19392 -0.93192,0.78108 -1.27128,0.99656c-0.18854,0.11313 -0.33398,0.167 -0.48481,0.167z" fill="#ffffff" stroke-width="1"/><path d="M58.99856,296.21602c-0.1239,-0.00539 -0.28551,-0.03771 -0.35553,-0.07541c-0.167,-0.09157 -1.12584,-1.55678 -1.16894,-1.78842c-0.05387,-0.28011 0.11313,-0.55484 0.46326,-0.75953c0.16161,-0.09697 0.34476,-0.17777 0.4094,-0.17777c0.24241,0 0.97501,0.90497 1.31438,1.62681c0.18315,0.38785 0.16161,0.48481 -0.19392,0.8942c-0.22087,0.25318 -0.26395,0.28011 -0.46864,0.28011z" fill="#ffffff" stroke-width="1"/><text transform="translate(115.11002,310) scale(0.5,0.5)" font-size="40" xml:space="preserve" fill="#858588" stroke-width="1" font-family="Sans Serif" font-weight="normal" text-anchor="start"><tspan x="0" dy="0">Ejercicio</tspan></text></g></g></svg>