<svg version="1.1" xmlns="http://www.w3.org/2000/svg" xmlns:xlink="http://www.w3.org/1999/xlink" width="287.08748" height="265.34789" viewBox="0,0,287.08748,265.34789"><g transform="translate(-10.95626,-171.32606)"><g stroke-miterlimit="10"><path d="M11.22576,404.82307c-0.19701,-49.79319 -0.4827,-145.75045 -0.01956,-197.80669c0.19251,-21.63758 16.46033,-35.69032 28.99306,-35.69032c59.07532,0 180.06764,0 229.87722,0c17.20559,0 27.96726,16.71572 27.96726,32.95273c0,32.06256 0,147.41926 0,202.59209c0,18.16255 -13.5498,29.80307 -27.28513,29.80307c-32.15946,0 -165.05413,0 -227.1487,0c-19.67652,0 -32.30721,-12.40509 -32.38415,-31.85087z" fill="#ffffff" stroke="none" stroke-width="0"/><text transform="translate(23.36215,213.29773) scale(0.33374,0.32277)" font-size="40" xml:space="preserve" fill="#000000" stroke="#000000" stroke-width="0" font-family="&quot;Arial&quot;, Sans Serif" font-weight="normal" text-anchor="start"><tspan x="0" dy="0">Info. Nutrición</tspan></text><path d="M37.2865,331.83779c0,-26.37103 21.37794,-47.74898 47.74898,-47.74898c26.37103,0 47.74898,21.37795 47.74898,47.74898c0,26.37103 -21.37794,47.74897 -47.74897,47.74897c-26.37103,0 -47.74897,-21.37794 -47.74897,-47.74897z" fill="#f1f1f3" stroke="#f1f1f3" stroke-width="4"/><text transform="translate(52.0812,400.05441) scale(0.23524,0.22751)" font-size="40" xml:space="preserve" fill="#000000" stroke="#000000" stroke-width="1" font-family="&quot;Arial&quot;, Sans Serif" font-weight="normal" text-anchor="start"><tspan x="0" dy="0">Recomendados</tspan></text><path d="M176.21556,331.83779c0,-26.37103 21.37795,-47.74898 47.74898,-47.74898c26.37103,0 47.74898,21.37795 47.74898,47.74898c0,26.37103 -21.37795,47.74897 -47.74897,47.74897c-26.37103,0 -47.74897,-21.37794 -47.74897,-47.74897z" fill="#f1f1f3" stroke="#f1f1f3" stroke-width="4"/><text transform="translate(214.28845,399.8835) scale(0.23524,0.22751)" font-size="40" xml:space="preserve" fill="#000000" stroke="#000000" stroke-width="1" font-family="&quot;Arial&quot;, Sans Serif" font-weight="normal" text-anchor="start"><tspan x="0" dy="0">Real</tspan></text></g></g></svg>