<svg version="1.1" xmlns="http://www.w3.org/2000/svg" xmlns:xlink="http://www.w3.org/1999/xlink" width="287.08748" height="265.34789" viewBox="0,0,287.08748,265.34789"><g transform="translate(-10.95626,-171.32606)"><g stroke-miterlimit="10"><path d="M11.22576,404.82307c-0.19701,-49.79319 -0.4827,-145.75045 -0.01956,-197.80669c0.19251,-21.63758 16.46033,-35.69032 28.99306,-35.69032c59.07532,0 180.06764,0 229.87722,0c17.20559,0 27.96726,16.71572 27.96726,32.95273c0,32.06256 0,147.41926 0,202.59209c0,18.16255 -13.5498,29.80307 -27.28513,29.80307c-32.15946,0 -165.05413,0 -227.1487,0c-19.67652,0 -32.30721,-12.40509 -32.38415,-31.85087z" fill="#ffffff" stroke="none" stroke-width="0" stroke-linejoin="miter"/><text transform="translate(23.36216,213.29777) scale(0.33374,0.32277)" font-size="40" xml:space="preserve" fill="#000000" stroke="#000000" stroke-width="0" stroke-linejoin="miter" font-family="&quot;Arial&quot;, Sans Serif" font-weight="normal" text-anchor="start"><tspan x="0" dy="0">Info. Nutrición</tspan></text><path d="M37.28651,331.83781c0,-26.37103 21.37794,-47.74898 47.74898,-47.74898c26.37103,0 47.74898,21.37795 47.74898,47.74898c0,26.37103 -21.37794,47.74897 -47.74897,47.74897c-26.37103,0 -47.74897,-21.37794 -47.74897,-47.74897z" fill="#f1f1f3" stroke="#f1f1f3" stroke-width="4" stroke-linejoin="miter"/><text transform="translate(52.08121,400.05445) scale(0.23524,0.22751)" font-size="40" xml:space="preserve" fill="#000000" stroke="#000000" stroke-width="1" stroke-linejoin="miter" font-family="&quot;Arial&quot;, Sans Serif" font-weight="normal" text-anchor="start"><tspan x="0" dy="0">Recomendados</tspan></text><path d="M176.21557,331.83781c0,-26.37103 21.37795,-47.74898 47.74898,-47.74898c26.37103,0 47.74898,21.37795 47.74898,47.74898c0,26.37103 -21.37795,47.74897 -47.74897,47.74897c-26.37103,0 -47.74897,-21.37794 -47.74897,-47.74897z" fill="#f1f1f3" stroke="#f1f1f3" stroke-width="4" stroke-linejoin="miter"/><text transform="translate(214.28846,399.88354) scale(0.23524,0.22751)" font-size="40" xml:space="preserve" fill="#000000" stroke="#000000" stroke-width="1" stroke-linejoin="miter" font-family="&quot;Arial&quot;, Sans Serif" font-weight="normal" text-anchor="start"><tspan x="0" dy="0">Real</tspan></text><path d="M85.03898,331.83781l-7.46934,-47.15956c18.62573,-2.95002 37.24293,5.33889 47.51368,21.15445c10.27075,15.81556 10.27075,36.19463 0,52.0102c-10.27075,15.81556 -28.88795,24.10447 -47.51368,21.15445z" fill="#d96c06" stroke="#f1f1f3" stroke-width="1" stroke-linejoin="round"/><path d="M85.03898,331.83781l-7.46934,47.15954c-26.0455,-4.1252 -43.81541,-28.58338 -39.69021,-54.62888z" fill="#f4b400" stroke="#f1f1f3" stroke-width="1" stroke-linejoin="round"/><path d="M85.03898,331.83781l-47.15955,-7.46934c3.23591,-20.43075 19.25946,-36.4543 39.69021,-39.69022z" fill="#1b857f" stroke="#f1f1f3" stroke-width="1" stroke-linejoin="round"/><path d="M85.03898,331.83781l-7.46934,-47.15956c18.62573,-2.95002 37.24293,5.33889 47.51368,21.15445c10.27075,15.81556 10.27075,36.19463 0,52.0102c-10.27075,15.81556 -28.88795,24.10447 -47.51368,21.15445z" fill-opacity="0" fill="#000000" stroke="none" stroke-width="1" stroke-linejoin="miter"/><path d="M85.03898,331.83781l-7.46934,47.15954c-26.0455,-4.1252 -43.81541,-28.58338 -39.69021,-54.62888z" fill-opacity="0" fill="#000000" stroke="none" stroke-width="1" stroke-linejoin="miter"/><path d="M85.03898,331.83781l-47.15955,-7.46934c3.23591,-20.43075 19.25946,-36.4543 39.69021,-39.69022z" fill-opacity="0" fill="#000000" stroke="none" stroke-width="1" stroke-linejoin="miter"/><path d="M59.5787,240.00193c-2.25364,0 -4.08058,-1.82693 -4.08058,-4.08058c0,-2.25365 1.82694,-4.08058 4.08058,-4.08058c2.25364,0 4.08058,1.82693 4.08058,4.08058c0,2.25365 -1.82694,4.08058 -4.08058,4.08058z" fill="#d96c06" stroke="none" stroke-width="1" stroke-linejoin="miter"/><path d="M142.38103,240.00193c-2.25364,0 -4.08058,-1.82693 -4.08058,-4.08058c0,-2.25365 1.82694,-4.08058 4.08058,-4.08058c2.25364,0 4.08058,1.82693 4.08058,4.08058c0,2.25365 -1.82694,4.08058 -4.08058,4.08058z" fill="#f4b400" stroke="none" stroke-width="1" stroke-linejoin="miter"/><path d="M221.01297,240.24057c-2.25364,0 -4.08058,-1.82693 -4.08058,-4.08058c0,-2.25365 1.82694,-4.08058 4.08058,-4.08058c2.25365,0 4.08058,1.82693 4.08058,4.08058c0,2.25365 -1.82693,4.08058 -4.08058,4.08058z" fill="#1b857f" stroke="none" stroke-width="1" stroke-linejoin="miter"/><path d="M223.96804,331.83783l-7.46934,-47.15956c18.62573,-2.95002 37.24293,5.33889 47.51368,21.15445c10.27075,15.81556 10.27075,36.19463 0,52.0102c-10.27075,15.81556 -28.88795,24.10447 -47.51368,21.15445z" fill="#ffffff" stroke="#f1f1f3" stroke-width="1" stroke-linejoin="round"/><path d="M223.96804,331.83783l-7.46934,47.15954c-26.0455,-4.1252 -43.81541,-28.58338 -39.69021,-54.62888z" fill="#ffffff" stroke="#f1f1f3" stroke-width="1" stroke-linejoin="round"/><path d="M223.96804,331.83783l-47.15955,-7.46934c3.23591,-20.43075 19.25946,-36.4543 39.69021,-39.69022z" fill="#ffffff" stroke="#f1f1f3" stroke-width="1" stroke-linejoin="round"/><text transform="translate(73.42451,239.53408) scale(0.23663,0.23663)" font-size="40" xml:space="preserve" fill="#858588" stroke="none" stroke-width="1" stroke-linejoin="miter" font-family="&quot;Arial&quot;, Sans Serif" font-weight="normal" text-anchor="start"><tspan x="0" dy="0">Carb.</tspan></text><text transform="translate(155.2118,239.53408) scale(0.23663,0.23663)" font-size="40" xml:space="preserve" fill="#858588" stroke="none" stroke-width="1" stroke-linejoin="miter" font-family="&quot;Arial&quot;, Sans Serif" font-weight="normal" text-anchor="start"><tspan x="0" dy="0">Grasa</tspan></text><text transform="translate(234.35126,239.23841) scale(0.23663,0.23663)" font-size="40" xml:space="preserve" fill="#858588" stroke="none" stroke-width="1" stroke-linejoin="miter" font-family="&quot;Arial&quot;, Sans Serif" font-weight="normal" text-anchor="start"><tspan x="0" dy="0">Proteína</tspan></text><text transform="translate(103.57029,335.63974) scale(0.24173,0.23663)" font-size="40" xml:space="preserve" fill="#403425" stroke="none" stroke-width="1" stroke-linejoin="miter" font-family="&quot;Arial&quot;, Sans Serif" font-weight="normal" text-anchor="start"><tspan x="0" dy="0">55%</tspan></text><text transform="translate(52.15822,314.94802) scale(0.24173,0.23663)" font-size="40" xml:space="preserve" fill="#403425" stroke="none" stroke-width="1" stroke-linejoin="miter" font-family="&quot;Arial&quot;, Sans Serif" font-weight="normal" text-anchor="start"><tspan x="0" dy="0">20%</tspan></text><text transform="translate(52.2359,350.07809) scale(0.24173,0.23663)" font-size="40" xml:space="preserve" fill="#403425" stroke="none" stroke-width="1" stroke-linejoin="miter" font-family="&quot;Arial&quot;, Sans Serif" font-weight="normal" text-anchor="start"><tspan x="0" dy="0">25%</tspan></text></g></g></svg>