<svg version="1.1" xmlns="http://www.w3.org/2000/svg" xmlns:xlink="http://www.w3.org/1999/xlink" width="125.9677" height="41.44632" viewBox="0,0,125.9677,41.44632"><g transform="translate(-22.76231,-349.65912)"><g stroke-miterlimit="10"><path d="M22.76231,370.4929c0,-6.92606 5.91692,-20.83377 17.15739,-20.83377c42.96648,0 29.4671,0 94.7929,0c8.9672,0 14.01741,14.04092 14.01741,20.99305c0,6.86214 -4.72123,20.45327 -13.13896,20.45327c-63.62426,0 -51.72238,0 -95.22362,0c-11.45886,0 -17.60511,-13.72333 -17.60511,-20.61252z" fill="#fcfcff" stroke="none" stroke-width="0"/><path d="M22.76231,370.4929c0,-6.92606 5.91692,-20.83377 17.15739,-20.83377c42.96648,0 29.4671,0 94.7929,0c8.9672,0 14.01741,14.04092 14.01741,20.99305c0,6.86214 -4.72123,20.45327 -13.13896,20.45327c-63.62426,0 -51.72238,0 -95.22362,0c-11.45886,0 -17.60511,-13.72333 -17.60511,-20.61252z" fill="#fcfcff" stroke="none" stroke-width="0"/><text transform="translate(54.85213,374.86189) scale(0.38599,0.3733)" font-size="40" xml:space="preserve" fill="#000000" stroke="#000000" stroke-width="1" font-family="&quot;Arial&quot;, Sans Serif" font-weight="400" text-anchor="start"><tspan x="0" dy="0">Cancelar</tspan></text></g></g></svg>